<mxfile host="app.diagrams.net" modified="2024-07-13T12:16:38.809Z" agent="Mozilla/5.0 (Windows NT 10.0; Win64; x64) AppleWebKit/537.36 (KHTML, like Gecko) Chrome/126.0.0.0 Safari/537.36" version="24.6.5" etag="JSTpY-dnUGQlgNuG49nb" type="github">
  <diagram name="PÃ¡gina-1" id="8t8FhbhFCnX5sqYWsS4-">
    <mxGraphModel>
      <root>
        <mxCell id="0" />
        <mxCell id="1" parent="0" />
      </root>
    </mxGraphModel>
  </diagram>
</mxfile>
